<?xml version="1.0" encoding="UTF-8" standalone="no"?>
<!DOCTYPE svg PUBLIC "-//W3C//DTD SVG 1.1//EN"
 "http://www.w3.org/Graphics/SVG/1.1/DTD/svg11.dtd">
<!-- Generated by graphviz version 2.38.0 (20140413.2041)
 -->
<!-- Title: %3 Pages: 1 -->
<svg width="636pt" height="288pt"
 viewBox="0.00 0.00 635.86 288.15" xmlns="http://www.w3.org/2000/svg" xmlns:xlink="http://www.w3.org/1999/xlink">
<g id="graph0" class="graph" transform="scale(1 1) rotate(0) translate(4 284.149)">
<title>%3</title>
<polygon fill="white" stroke="none" points="-4,4 -4,-284.149 631.856,-284.149 631.856,4 -4,4"/>
<!-- Input&#45;1 -->
<g id="node1" class="node"><title>Input&#45;1</title>
<polygon fill="lightgray" stroke="black" points="224.143,-213.936 181.143,-213.936 181.143,-195.936 224.143,-195.936 224.143,-213.936"/>
<text text-anchor="middle" x="202.643" y="-202.736" font-family="Times,serif" font-size="9.00">Input&#45;1</text>
</g>
<!-- 135 -->
<g id="node13" class="node"><title>135</title>
<ellipse fill="white" stroke="black" cx="215.643" cy="-126.51" rx="21.4286" ry="21.4286"/>
<text text-anchor="middle" x="215.643" y="-124.31" font-family="Times,serif" font-size="9.00">135</text>
</g>
<!-- Input&#45;1&#45;&gt;135 -->
<g id="edge1" class="edge"><title>Input&#45;1&#45;&gt;135</title>
<path fill="none" stroke="green" stroke-width="0.14367" d="M204.034,-195.757C205.579,-186.674 208.165,-171.475 210.504,-157.724"/>
<polygon fill="green" stroke="green" stroke-width="0.14367" points="213.997,-158.06 212.223,-147.615 207.096,-156.886 213.997,-158.06"/>
</g>
<!-- 136 -->
<g id="node14" class="node"><title>136</title>
<ellipse fill="white" stroke="black" cx="293.643" cy="-126.51" rx="21.4286" ry="21.4286"/>
<text text-anchor="middle" x="293.643" y="-124.31" font-family="Times,serif" font-size="9.00">136</text>
</g>
<!-- Input&#45;1&#45;&gt;136 -->
<g id="edge2" class="edge"><title>Input&#45;1&#45;&gt;136</title>
<path fill="none" stroke="green" stroke-width="0.36711" d="M212.382,-195.757C225.961,-184.352 251.022,-163.305 269.737,-147.587"/>
<polygon fill="green" stroke="green" stroke-width="0.36711" points="272.164,-150.12 277.571,-141.008 267.662,-144.759 272.164,-150.12"/>
</g>
<!-- 137 -->
<g id="node15" class="node"><title>137</title>
<ellipse fill="white" stroke="black" cx="371.643" cy="-126.51" rx="21.4286" ry="21.4286"/>
<text text-anchor="middle" x="371.643" y="-124.31" font-family="Times,serif" font-size="9.00">137</text>
</g>
<!-- Input&#45;1&#45;&gt;137 -->
<g id="edge3" class="edge"><title>Input&#45;1&#45;&gt;137</title>
<path fill="none" stroke="green" stroke-width="0.492831" d="M213.043,-195.892C218.628,-191.845 225.764,-187.097 232.643,-183.723 278.45,-161.259 295.837,-170.187 341.643,-147.723 343.194,-146.962 344.757,-146.132 346.313,-145.256"/>
<polygon fill="green" stroke="green" stroke-width="0.492831" points="348.325,-148.127 354.998,-139.898 344.649,-142.17 348.325,-148.127"/>
</g>
<!-- Input&#45;2 -->
<g id="node2" class="node"><title>Input&#45;2</title>
<polygon fill="lightgray" stroke="black" points="285.143,-213.936 242.143,-213.936 242.143,-195.936 285.143,-195.936 285.143,-213.936"/>
<text text-anchor="middle" x="263.643" y="-202.736" font-family="Times,serif" font-size="9.00">Input&#45;2</text>
</g>
<!-- Input&#45;2&#45;&gt;135 -->
<g id="edge4" class="edge"><title>Input&#45;2&#45;&gt;135</title>
<path fill="none" stroke="green" stroke-width="0.238022" d="M258.506,-195.757C252.217,-185.744 241.261,-168.298 231.999,-153.552"/>
<polygon fill="green" stroke="green" stroke-width="0.238022" points="234.791,-151.417 226.509,-144.81 228.864,-155.14 234.791,-151.417"/>
</g>
<!-- Input&#45;2&#45;&gt;136 -->
<g id="edge5" class="edge"><title>Input&#45;2&#45;&gt;136</title>
<path fill="none" stroke="red" stroke-width="0.153784" d="M266.854,-195.757C270.563,-186.308 276.87,-170.241 282.432,-156.07"/>
<polygon fill="red" stroke="red" stroke-width="0.153784" points="285.728,-157.253 286.124,-146.666 279.212,-154.695 285.728,-157.253"/>
</g>
<!-- Input&#45;2&#45;&gt;137 -->
<g id="edge6" class="edge"><title>Input&#45;2&#45;&gt;137</title>
<path fill="none" stroke="red" stroke-width="0.343903" d="M275.201,-195.757C292.015,-183.859 323.659,-161.466 346.109,-145.579"/>
<polygon fill="red" stroke="red" stroke-width="0.343903" points="348.367,-148.269 354.508,-139.635 344.323,-142.555 348.367,-148.269"/>
</g>
<!-- Input&#45;3 -->
<g id="node3" class="node"><title>Input&#45;3</title>
<polygon fill="lightgray" stroke="black" points="346.143,-213.936 303.143,-213.936 303.143,-195.936 346.143,-195.936 346.143,-213.936"/>
<text text-anchor="middle" x="324.643" y="-202.736" font-family="Times,serif" font-size="9.00">Input&#45;3</text>
</g>
<!-- Input&#45;3&#45;&gt;135 -->
<g id="edge7" class="edge"><title>Input&#45;3&#45;&gt;135</title>
<path fill="none" stroke="red" stroke-width="0.319807" d="M312.978,-195.757C295.912,-183.791 263.707,-161.21 241.026,-145.307"/>
<polygon fill="red" stroke="red" stroke-width="0.319807" points="242.752,-142.243 232.555,-139.367 238.733,-147.974 242.752,-142.243"/>
</g>
<!-- Input&#45;3&#45;&gt;136 -->
<g id="edge8" class="edge"><title>Input&#45;3&#45;&gt;136</title>
<path fill="none" stroke="red" stroke-width="0.218656" d="M321.326,-195.757C317.468,-186.246 310.889,-170.028 305.113,-155.788"/>
<polygon fill="red" stroke="red" stroke-width="0.218656" points="308.288,-154.304 301.286,-146.353 301.802,-156.935 308.288,-154.304"/>
</g>
<!-- Input&#45;3&#45;&gt;137 -->
<g id="edge9" class="edge"><title>Input&#45;3&#45;&gt;137</title>
<path fill="none" stroke="red" stroke-width="0.250966" d="M329.673,-195.757C335.792,-185.808 346.423,-168.52 355.454,-153.834"/>
<polygon fill="red" stroke="red" stroke-width="0.250966" points="358.559,-155.467 360.816,-145.115 352.596,-151.8 358.559,-155.467"/>
</g>
<!-- Input&#45;4 -->
<g id="node4" class="node"><title>Input&#45;4</title>
<polygon fill="lightgray" stroke="black" points="407.143,-213.936 364.143,-213.936 364.143,-195.936 407.143,-195.936 407.143,-213.936"/>
<text text-anchor="middle" x="385.643" y="-202.736" font-family="Times,serif" font-size="9.00">Input&#45;4</text>
</g>
<!-- Input&#45;4&#45;&gt;135 -->
<g id="edge10" class="edge"><title>Input&#45;4&#45;&gt;135</title>
<path fill="none" stroke="red" stroke-width="0.145222" d="M374.49,-195.882C368.731,-191.927 361.492,-187.264 354.643,-183.723 316.009,-163.744 303.91,-164.164 263.643,-147.723 257.49,-145.211 250.914,-142.475 244.664,-139.851"/>
<polygon fill="red" stroke="red" stroke-width="0.145222" points="245.794,-136.529 235.22,-135.868 243.074,-142.979 245.794,-136.529"/>
</g>
<!-- Input&#45;4&#45;&gt;136 -->
<g id="edge11" class="edge"><title>Input&#45;4&#45;&gt;136</title>
<path fill="none" stroke="red" stroke-width="0.399697" d="M375.798,-195.757C361.988,-184.285 336.434,-163.057 317.479,-147.311"/>
<polygon fill="red" stroke="red" stroke-width="0.399697" points="319.485,-144.427 309.557,-140.729 315.012,-149.812 319.485,-144.427"/>
</g>
<!-- Input&#45;4&#45;&gt;137 -->
<g id="edge12" class="edge"><title>Input&#45;4&#45;&gt;137</title>
<path fill="none" stroke="red" stroke-width="0.375959" d="M384.145,-195.757C382.481,-186.674 379.697,-171.475 377.178,-157.724"/>
<polygon fill="red" stroke="red" stroke-width="0.375959" points="380.571,-156.82 375.326,-147.615 373.685,-158.082 380.571,-156.82"/>
</g>
<!-- Input&#45;5 -->
<g id="node5" class="node"><title>Input&#45;5</title>
<polygon fill="lightgray" stroke="black" points="468.143,-213.936 425.143,-213.936 425.143,-195.936 468.143,-195.936 468.143,-213.936"/>
<text text-anchor="middle" x="446.643" y="-202.736" font-family="Times,serif" font-size="9.00">Input&#45;5</text>
</g>
<!-- Input&#45;5&#45;&gt;135 -->
<g id="edge13" class="edge"><title>Input&#45;5&#45;&gt;135</title>
<path fill="none" stroke="green" stroke-width="0.127857" d="M436.632,-195.843C431.041,-191.681 423.779,-186.841 416.643,-183.723 352.632,-155.749 330.067,-169.354 263.643,-147.723 257.211,-145.628 250.439,-143.032 244.075,-140.405"/>
<polygon fill="green" stroke="green" stroke-width="0.127857" points="245.089,-137.032 234.518,-136.322 242.338,-143.469 245.089,-137.032"/>
</g>
<!-- Input&#45;5&#45;&gt;136 -->
<g id="edge14" class="edge"><title>Input&#45;5&#45;&gt;136</title>
<path fill="none" stroke="green" stroke-width="0.317235" d="M435.525,-195.806C429.987,-191.923 423.108,-187.346 416.643,-183.723 399.64,-174.194 352.955,-153.381 322.24,-139.928"/>
<polygon fill="green" stroke="green" stroke-width="0.317235" points="323.452,-136.638 312.887,-135.842 320.65,-143.053 323.452,-136.638"/>
</g>
<!-- Input&#45;5&#45;&gt;137 -->
<g id="edge15" class="edge"><title>Input&#45;5&#45;&gt;137</title>
<path fill="none" stroke="red" stroke-width="0.156353" d="M438.617,-195.757C427.835,-184.77 408.272,-164.836 393.063,-149.337"/>
<polygon fill="red" stroke="red" stroke-width="0.156353" points="395.506,-146.83 386.004,-142.144 390.51,-151.733 395.506,-146.83"/>
</g>
<!-- Input&#45;6 -->
<g id="node6" class="node"><title>Input&#45;6</title>
<polygon fill="lightgray" stroke="black" points="529.143,-213.936 486.143,-213.936 486.143,-195.936 529.143,-195.936 529.143,-213.936"/>
<text text-anchor="middle" x="507.643" y="-202.736" font-family="Times,serif" font-size="9.00">Input&#45;6</text>
</g>
<!-- Input&#45;6&#45;&gt;135 -->
<g id="edge16" class="edge"><title>Input&#45;6&#45;&gt;135</title>
<path fill="none" stroke="green" stroke-width="0.220138" d="M497.977,-195.862C492.375,-191.599 484.992,-186.656 477.643,-183.723 388.068,-147.968 356.265,-174.619 263.643,-147.723 257.147,-145.836 250.348,-143.326 243.979,-140.718"/>
<polygon fill="green" stroke="green" stroke-width="0.220138" points="244.997,-137.346 234.428,-136.614 242.234,-143.778 244.997,-137.346"/>
</g>
<!-- Input&#45;6&#45;&gt;136 -->
<g id="edge17" class="edge"><title>Input&#45;6&#45;&gt;136</title>
<path fill="none" stroke="red" stroke-width="0.330181" d="M497.597,-195.922C491.995,-191.783 484.735,-186.94 477.643,-183.723 420.701,-157.894 400.823,-167.905 341.643,-147.723 335.241,-145.539 328.481,-142.906 322.12,-140.272"/>
<polygon fill="red" stroke="red" stroke-width="0.330181" points="323.131,-136.898 312.56,-136.197 320.386,-143.338 323.131,-136.898"/>
</g>
<!-- Input&#45;6&#45;&gt;137 -->
<g id="edge18" class="edge"><title>Input&#45;6&#45;&gt;137</title>
<path fill="none" stroke="red" stroke-width="0.404534" d="M496.145,-195.774C490.636,-191.972 483.891,-187.47 477.643,-183.723 451.656,-168.137 420.975,-152.112 399.326,-141.181"/>
<polygon fill="red" stroke="red" stroke-width="0.404534" points="400.861,-138.035 390.353,-136.68 397.723,-144.292 400.861,-138.035"/>
</g>
<!-- Input&#45;7 -->
<g id="node7" class="node"><title>Input&#45;7</title>
<polygon fill="lightgray" stroke="black" points="63.1432,-213.936 20.1432,-213.936 20.1432,-195.936 63.1432,-195.936 63.1432,-213.936"/>
<text text-anchor="middle" x="41.6432" y="-202.736" font-family="Times,serif" font-size="9.00">Input&#45;7</text>
</g>
<!-- Input&#45;7&#45;&gt;135 -->
<g id="edge19" class="edge"><title>Input&#45;7&#45;&gt;135</title>
<path fill="none" stroke="red" stroke-width="0.211571" d="M55.1064,-195.849C61.7804,-191.977 70.0243,-187.396 77.6432,-183.723 114.171,-166.113 157.705,-148.993 185.97,-138.365"/>
<polygon fill="red" stroke="red" stroke-width="0.211571" points="187.505,-141.529 195.652,-134.755 185.059,-134.97 187.505,-141.529"/>
</g>
<!-- Input&#45;7&#45;&gt;136 -->
<g id="edge20" class="edge"><title>Input&#45;7&#45;&gt;136</title>
<path fill="none" stroke="red" stroke-width="0.228721" d="M53.8307,-195.796C60.5912,-191.62 69.2982,-186.782 77.6432,-183.723 156.699,-154.74 185.831,-179.894 263.643,-147.723 265.239,-147.063 266.839,-146.312 268.422,-145.496"/>
<polygon fill="red" stroke="red" stroke-width="0.228721" points="270.36,-148.416 277.185,-140.313 266.796,-142.391 270.36,-148.416"/>
</g>
<!-- Input&#45;7&#45;&gt;137 -->
<g id="edge21" class="edge"><title>Input&#45;7&#45;&gt;137</title>
<path fill="none" stroke="red" stroke-width="0.236729" d="M63.208,-196.832C76.7201,-192.577 94.5625,-187.315 110.643,-183.723 212.05,-161.069 244.911,-185.66 341.643,-147.723 343.251,-147.092 344.86,-146.364 346.45,-145.566"/>
<polygon fill="red" stroke="red" stroke-width="0.236729" points="348.365,-148.501 355.234,-140.434 344.834,-142.457 348.365,-148.501"/>
</g>
<!-- Input&#45;8 -->
<g id="node8" class="node"><title>Input&#45;8</title>
<polygon fill="lightgray" stroke="black" points="163.143,-213.936 120.143,-213.936 120.143,-195.936 163.143,-195.936 163.143,-213.936"/>
<text text-anchor="middle" x="141.643" y="-202.736" font-family="Times,serif" font-size="9.00">Input&#45;8</text>
</g>
<!-- Input&#45;8&#45;&gt;135 -->
<g id="edge22" class="edge"><title>Input&#45;8&#45;&gt;135</title>
<path fill="none" stroke="green" stroke-width="0.400414" d="M149.562,-195.757C160.136,-184.837 179.27,-165.075 194.237,-149.618"/>
<polygon fill="green" stroke="green" stroke-width="0.400414" points="196.752,-152.051 201.194,-142.433 191.723,-147.182 196.752,-152.051"/>
</g>
<!-- Input&#45;8&#45;&gt;136 -->
<g id="edge23" class="edge"><title>Input&#45;8&#45;&gt;136</title>
<path fill="none" stroke="red" stroke-width="0.132125" d="M152.397,-195.846C157.96,-191.883 164.969,-187.223 171.643,-183.723 210.529,-163.332 224.757,-168.113 263.643,-147.723 265.173,-146.921 266.72,-146.058 268.263,-145.156"/>
<polygon fill="red" stroke="red" stroke-width="0.132125" points="270.303,-148.008 276.911,-139.726 266.58,-142.08 270.303,-148.008"/>
</g>
<!-- Input&#45;8&#45;&gt;137 -->
<g id="edge24" class="edge"><title>Input&#45;8&#45;&gt;137</title>
<path fill="none" stroke="green" stroke-width="0.185978" d="M151.627,-195.779C157.21,-191.599 164.473,-186.761 171.643,-183.723 242.754,-153.591 270.533,-177.855 341.643,-147.723 343.233,-147.049 344.828,-146.287 346.408,-145.463"/>
<polygon fill="green" stroke="green" stroke-width="0.185978" points="348.356,-148.376 355.161,-140.255 344.777,-142.36 348.356,-148.376"/>
</g>
<!-- Input&#45;9 -->
<g id="node9" class="node"><title>Input&#45;9</title>
<polygon fill="lightgray" stroke="black" points="346.143,-280.149 303.143,-280.149 303.143,-262.149 346.143,-262.149 346.143,-280.149"/>
<text text-anchor="middle" x="324.643" y="-268.949" font-family="Times,serif" font-size="9.00">Input&#45;9</text>
</g>
<!-- Input&#45;9&#45;&gt;135 -->
<g id="edge25" class="edge"><title>Input&#45;9&#45;&gt;135</title>
<path fill="none" stroke="green" stroke-width="0.421864" d="M302.941,-270.605C238.247,-271.453 48.8424,-270.074 10.6432,-226.149 -41.4963,-166.194 114.904,-139.555 184.287,-130.895"/>
<polygon fill="green" stroke="green" stroke-width="0.421864" points="184.732,-134.367 194.245,-129.701 183.899,-127.416 184.732,-134.367"/>
</g>
<!-- Input&#45;9&#45;&gt;136 -->
<g id="edge26" class="edge"><title>Input&#45;9&#45;&gt;136</title>
<path fill="none" stroke="green" stroke-width="0.429459" d="M302.959,-269.043C253.507,-266.02 134.791,-255.767 110.643,-226.149 98.7279,-211.535 98.9359,-198.504 110.643,-183.723 154.015,-128.961 199.632,-175.697 263.643,-147.723 265.226,-147.031 266.814,-146.255 268.39,-145.42"/>
<polygon fill="green" stroke="green" stroke-width="0.429459" points="270.351,-148.325 277.129,-140.182 266.753,-142.321 270.351,-148.325"/>
</g>
<!-- Input&#45;9&#45;&gt;137 -->
<g id="edge27" class="edge"><title>Input&#45;9&#45;&gt;137</title>
<path fill="none" stroke="red" stroke-width="0.197647" stroke-dasharray="1,5" d="M346.327,-269.043C395.78,-266.02 514.495,-255.767 538.643,-226.149 550.558,-211.535 549.646,-199.036 538.643,-183.723 507.739,-140.712 442.257,-130.167 403.099,-127.846"/>
<polygon fill="red" stroke="red" stroke-width="0.197647" points="403.186,-124.347 393.04,-127.397 402.873,-131.34 403.186,-124.347"/>
</g>
<!-- 304 -->
<g id="node16" class="node"><title>304</title>
<ellipse fill="white" stroke="black" cx="606.643" cy="-204.936" rx="21.4286" ry="21.4286"/>
<text text-anchor="middle" x="606.643" y="-202.736" font-family="Times,serif" font-size="9.00">304</text>
</g>
<!-- Input&#45;9&#45;&gt;304 -->
<g id="edge43" class="edge"><title>Input&#45;9&#45;&gt;304</title>
<path fill="none" stroke="red" stroke-width="0.192396" d="M346.442,-268.806C390.307,-265.559 491.857,-255.274 571.643,-226.149 574.581,-225.077 577.556,-223.766 580.467,-222.331"/>
<polygon fill="red" stroke="red" stroke-width="0.192396" points="582.303,-225.316 589.421,-217.469 578.963,-219.165 582.303,-225.316"/>
</g>
<!-- Output&#45;1 -->
<g id="node10" class="node"><title>Output&#45;1</title>
<ellipse fill="lightblue" stroke="black" cx="188.643" cy="-34.6482" rx="34.7971" ry="34.7971"/>
<text text-anchor="middle" x="188.643" y="-32.4482" font-family="Times,serif" font-size="9.00">Output&#45;1</text>
</g>
<!-- Output&#45;1&#45;&gt;Output&#45;1 -->
<g id="edge37" class="edge"><title>Output&#45;1&#45;&gt;Output&#45;1</title>
<path fill="none" stroke="green" stroke-width="0.3034" d="M219.204,-51.4398C231.239,-52.2864 241.291,-46.6892 241.291,-34.6482 241.291,-26.1819 236.322,-20.9013 229.188,-18.8064"/>
<polygon fill="green" stroke="green" stroke-width="0.3034" points="229.491,-15.3195 219.204,-17.8567 228.828,-22.2881 229.491,-15.3195"/>
</g>
<!-- Output&#45;2 -->
<g id="node11" class="node"><title>Output&#45;2</title>
<ellipse fill="lightblue" stroke="black" cx="293.643" cy="-34.6482" rx="34.7971" ry="34.7971"/>
<text text-anchor="middle" x="293.643" y="-32.4482" font-family="Times,serif" font-size="9.00">Output&#45;2</text>
</g>
<!-- Output&#45;2&#45;&gt;Output&#45;2 -->
<g id="edge38" class="edge"><title>Output&#45;2&#45;&gt;Output&#45;2</title>
<path fill="none" stroke="green" stroke-width="0.420776" d="M324.204,-51.4398C336.239,-52.2864 346.291,-46.6892 346.291,-34.6482 346.291,-26.1819 341.322,-20.9013 334.188,-18.8064"/>
<polygon fill="green" stroke="green" stroke-width="0.420776" points="334.491,-15.3195 324.204,-17.8567 333.828,-22.2881 334.491,-15.3195"/>
</g>
<!-- Output&#45;3 -->
<g id="node12" class="node"><title>Output&#45;3</title>
<ellipse fill="lightblue" stroke="black" cx="398.643" cy="-34.6482" rx="34.7971" ry="34.7971"/>
<text text-anchor="middle" x="398.643" y="-32.4482" font-family="Times,serif" font-size="9.00">Output&#45;3</text>
</g>
<!-- Output&#45;3&#45;&gt;Output&#45;3 -->
<g id="edge39" class="edge"><title>Output&#45;3&#45;&gt;Output&#45;3</title>
<path fill="none" stroke="green" stroke-width="0.232548" d="M429.204,-51.4398C441.239,-52.2864 451.291,-46.6892 451.291,-34.6482 451.291,-26.1819 446.322,-20.9013 439.188,-18.8064"/>
<polygon fill="green" stroke="green" stroke-width="0.232548" points="439.491,-15.3195 429.204,-17.8567 438.828,-22.2881 439.491,-15.3195"/>
</g>
<!-- 135&#45;&gt;Output&#45;1 -->
<g id="edge28" class="edge"><title>135&#45;&gt;Output&#45;1</title>
<path fill="none" stroke="green" stroke-width="0.162091" d="M209.785,-106.011C207.295,-97.7262 204.289,-87.7212 201.335,-77.8886"/>
<polygon fill="green" stroke="green" stroke-width="0.162091" points="204.648,-76.7535 198.419,-68.1836 197.944,-78.7678 204.648,-76.7535"/>
</g>
<!-- 135&#45;&gt;Output&#45;2 -->
<g id="edge29" class="edge"><title>135&#45;&gt;Output&#45;2</title>
<path fill="none" stroke="red" stroke-width="0.169407" d="M229.23,-109.857C239.026,-98.5712 252.611,-82.9202 264.781,-68.8996"/>
<polygon fill="red" stroke="red" stroke-width="0.169407" points="267.451,-71.1624 271.363,-61.3162 262.165,-66.5739 267.451,-71.1624"/>
</g>
<!-- 135&#45;&gt;Output&#45;3 -->
<g id="edge30" class="edge"><title>135&#45;&gt;Output&#45;3</title>
<path fill="none" stroke="green" stroke-width="0.181878" d="M235.213,-117.135C243.9,-113.452 254.26,-109.107 263.643,-105.296 304.324,-88.7748 317.506,-91.0558 355.643,-69.2965 358.525,-67.6523 361.422,-65.8288 364.277,-63.9056"/>
<polygon fill="green" stroke="green" stroke-width="0.181878" points="366.556,-66.579 372.657,-57.9172 362.486,-60.8838 366.556,-66.579"/>
</g>
<!-- 135&#45;&gt;135 -->
<g id="edge40" class="edge"><title>135&#45;&gt;135</title>
<path fill="none" stroke="red" stroke-width="0.371599" d="M232.572,-139.846C243.864,-143.6 254.856,-139.154 254.856,-126.51 254.856,-117.817 249.661,-112.999 242.744,-112.057"/>
<polygon fill="red" stroke="red" stroke-width="0.371599" points="242.13,-108.603 232.572,-113.174 242.894,-115.561 242.13,-108.603"/>
</g>
<!-- 136&#45;&gt;Output&#45;1 -->
<g id="edge31" class="edge"><title>136&#45;&gt;Output&#45;1</title>
<path fill="none" stroke="red" stroke-width="0.324179" d="M277.696,-111.862C263.038,-99.317 240.833,-80.3135 222.263,-64.4213"/>
<polygon fill="red" stroke="red" stroke-width="0.324179" points="224.434,-61.6718 214.56,-57.8287 219.882,-66.99 224.434,-61.6718"/>
</g>
<!-- 136&#45;&gt;Output&#45;2 -->
<g id="edge32" class="edge"><title>136&#45;&gt;Output&#45;2</title>
<path fill="none" stroke="green" stroke-width="0.229572" d="M293.643,-105.119C293.643,-97.4435 293.643,-88.3902 293.643,-79.3998"/>
<polygon fill="green" stroke="green" stroke-width="0.229572" points="297.143,-79.353 293.643,-69.353 290.143,-79.353 297.143,-79.353"/>
</g>
<!-- 136&#45;&gt;Output&#45;3 -->
<g id="edge33" class="edge"><title>136&#45;&gt;Output&#45;3</title>
<path fill="none" stroke="green" stroke-width="0.162004" d="M309.59,-111.862C324.248,-99.317 346.453,-80.3135 365.023,-64.4213"/>
<polygon fill="green" stroke="green" stroke-width="0.162004" points="367.404,-66.99 372.726,-57.8287 362.853,-61.6718 367.404,-66.99"/>
</g>
<!-- 136&#45;&gt;136 -->
<g id="edge41" class="edge"><title>136&#45;&gt;136</title>
<path fill="none" stroke="red" stroke-width="0.237261" d="M310.572,-139.846C321.864,-143.6 332.856,-139.154 332.856,-126.51 332.856,-117.817 327.661,-112.999 320.744,-112.057"/>
<polygon fill="red" stroke="red" stroke-width="0.237261" points="320.13,-108.603 310.572,-113.174 320.894,-115.561 320.13,-108.603"/>
</g>
<!-- 137&#45;&gt;Output&#45;1 -->
<g id="edge34" class="edge"><title>137&#45;&gt;Output&#45;1</title>
<path fill="none" stroke="green" stroke-width="0.12338" d="M354.911,-113.293C350.691,-110.479 346.093,-107.63 341.643,-105.296 302.757,-84.906 289.396,-87.9403 249.643,-69.2965 242.329,-65.8661 234.678,-61.935 227.365,-57.9981"/>
<polygon fill="green" stroke="green" stroke-width="0.12338" points="228.784,-54.7846 218.333,-53.0454 225.419,-60.9224 228.784,-54.7846"/>
</g>
<!-- 137&#45;&gt;Output&#45;2 -->
<g id="edge35" class="edge"><title>137&#45;&gt;Output&#45;2</title>
<path fill="none" stroke="red" stroke-width="0.511266" d="M358.057,-109.857C348.26,-98.5712 334.675,-82.9202 322.505,-68.8996"/>
<polygon fill="red" stroke="red" stroke-width="0.511266" points="325.121,-66.5739 315.923,-61.3162 319.835,-71.1624 325.121,-66.5739"/>
</g>
<!-- 137&#45;&gt;Output&#45;3 -->
<g id="edge36" class="edge"><title>137&#45;&gt;Output&#45;3</title>
<path fill="none" stroke="green" stroke-width="0.16219" d="M377.502,-106.011C379.991,-97.7262 382.997,-87.7212 385.952,-77.8886"/>
<polygon fill="green" stroke="green" stroke-width="0.16219" points="389.342,-78.7678 388.868,-68.1836 382.638,-76.7535 389.342,-78.7678"/>
</g>
<!-- 137&#45;&gt;137 -->
<g id="edge42" class="edge"><title>137&#45;&gt;137</title>
<path fill="none" stroke="green" stroke-width="0.121466" d="M388.572,-139.846C399.864,-143.6 410.856,-139.154 410.856,-126.51 410.856,-117.817 405.661,-112.999 398.744,-112.057"/>
<polygon fill="green" stroke="green" stroke-width="0.121466" points="398.13,-108.603 388.572,-113.174 398.894,-115.561 398.13,-108.603"/>
</g>
<!-- 304&#45;&gt;137 -->
<g id="edge44" class="edge"><title>304&#45;&gt;137</title>
<path fill="none" stroke="green" stroke-width="0.35922" d="M588.92,-192.555C583.516,-189.402 577.463,-186.176 571.643,-183.723 513.827,-159.356 442.237,-142.149 402.288,-133.622"/>
<polygon fill="green" stroke="green" stroke-width="0.35922" points="402.874,-130.169 392.369,-131.545 401.439,-137.02 402.874,-130.169"/>
</g>
</g>
</svg>
